<svg width="18" height="18" viewBox="0 0 18 18" fill="none" xmlns="http://www.w3.org/2000/svg">
<path d="M9.0002 0C9.23889 0 9.46781 0.0948211 9.63659 0.263604C9.80538 0.432387 9.9002 0.661305 9.9002 0.9V1.8495C11.8568 2.0718 13.1987 3.0159 14.0501 4.1985C14.996 5.5107 15.3002 7.056 15.3002 8.1V11.3274L16.8365 12.8637C16.9623 12.9896 17.048 13.1499 17.0827 13.3245C17.1174 13.499 17.0996 13.68 17.0315 13.8444C16.9634 14.0088 16.8481 14.1494 16.7001 14.2483C16.5521 14.3472 16.3782 14.4 16.2002 14.4H12.6002C12.6002 14.994 12.4292 15.8652 11.8901 16.614C11.3186 17.4069 10.3736 18 9.0002 18C7.6268 18 6.6818 17.4078 6.1094 16.614C5.65428 15.9648 5.40697 15.1928 5.4002 14.4H1.8002C1.62222 14.4 1.44826 14.3472 1.30029 14.2483C1.15232 14.1494 1.03699 14.0088 0.968889 13.8444C0.900786 13.68 0.882963 13.499 0.917674 13.3245C0.952385 13.1499 1.03807 12.9896 1.1639 12.8637L2.7002 11.3274V8.1C2.7002 5.6466 3.7424 4.0266 5.0996 3.0492C6.0707 2.3508 7.1705 2.0016 8.1002 1.8675V0.9C8.1002 0.661305 8.19502 0.432387 8.3638 0.263604C8.53259 0.0948211 8.7615 0 9.0002 0V0ZM7.2002 14.4C7.2002 14.706 7.2992 15.1848 7.571 15.561C7.8086 15.8922 8.2136 16.2 9.0002 16.2C9.7868 16.2 10.1918 15.8922 10.4294 15.561C10.7012 15.1848 10.8002 14.706 10.8002 14.4H7.2002V14.4ZM6.1508 4.5108C5.258 5.1534 4.5002 6.2334 4.5002 8.1V11.7C4.50015 11.9387 4.40529 12.1676 4.2365 12.3363L3.9728 12.6H14.0276L13.7639 12.3363C13.5951 12.1676 13.5002 11.9387 13.5002 11.7V8.1C13.5002 7.344 13.2662 6.1902 12.5903 5.2506C11.9468 4.3578 10.8659 3.6 9.0002 3.6C8.2442 3.6 7.0904 3.834 6.1508 4.5108V4.5108Z" fill="white"/>
<circle cx="13" cy="4" r="3" fill="#9267FF"/>
</svg>
