<svg width="20" height="21" viewBox="0 0 20 21" fill="none" xmlns="http://www.w3.org/2000/svg">
<path d="M3.534 11.07C3.65695 11.0175 3.78916 10.9903 3.92283 10.9898C4.0565 10.9893 4.18891 11.0156 4.31223 11.0672C4.43555 11.1188 4.54728 11.1945 4.64082 11.29C4.73436 11.3855 4.8078 11.4988 4.85681 11.6231C4.90582 11.7475 4.9294 11.8804 4.92615 12.014C4.92291 12.1477 4.8929 12.2793 4.83792 12.4011C4.78293 12.523 4.70408 12.6325 4.60602 12.7234C4.50796 12.8142 4.39268 12.8845 4.267 12.93C3.59854 13.1934 3.02483 13.6519 2.6205 14.2458C2.21618 14.8397 1.99997 15.5415 2 16.26V18C2 18.2652 2.10536 18.5196 2.29289 18.7071C2.48043 18.8946 2.73478 19 3 19H11C11.2652 19 11.5196 18.8946 11.7071 18.7071C11.8946 18.5196 12 18.2652 12 18V16.353C12.0001 15.6115 11.7749 14.8874 11.3541 14.2768C10.9334 13.6662 10.337 13.1979 9.644 12.934C9.51754 12.8901 9.40118 12.8213 9.30181 12.7316C9.20244 12.6419 9.12209 12.5332 9.06553 12.4119C9.00896 12.2905 8.97732 12.1591 8.97249 12.0253C8.96766 11.8916 8.98974 11.7582 9.03742 11.6331C9.08509 11.508 9.1574 11.3938 9.25004 11.2972C9.34268 11.2006 9.45378 11.1235 9.57675 11.0706C9.69971 11.0177 9.83205 10.9901 9.9659 10.9893C10.0998 10.9885 10.2324 11.0146 10.356 11.066C11.4276 11.4742 12.3499 12.1983 13.0006 13.1425C13.6514 14.0867 13.9999 15.2063 14 16.353V18C14 18.7956 13.6839 19.5587 13.1213 20.1213C12.5587 20.6839 11.7956 21 11 21H3C2.20435 21 1.44129 20.6839 0.87868 20.1213C0.316071 19.5587 0 18.7956 0 18V16.26C0.000137601 15.1402 0.337277 14.0463 0.967561 13.1206C1.59785 12.195 2.4921 11.4805 3.534 11.07ZM7 1C8.06087 1 9.07828 1.42143 9.82843 2.17157C10.5786 2.92172 11 3.93913 11 5V7C11 8.06087 10.5786 9.07828 9.82843 9.82843C9.07828 10.5786 8.06087 11 7 11C5.93913 11 4.92172 10.5786 4.17157 9.82843C3.42143 9.07828 3 8.06087 3 7V5C3 3.93913 3.42143 2.92172 4.17157 2.17157C4.92172 1.42143 5.93913 1 7 1ZM7 3C6.46957 3 5.96086 3.21071 5.58579 3.58579C5.21071 3.96086 5 4.46957 5 5V7C5 7.53043 5.21071 8.03914 5.58579 8.41421C5.96086 8.78929 6.46957 9 7 9C7.53043 9 8.03914 8.78929 8.41421 8.41421C8.78929 8.03914 9 7.53043 9 7V5C9 4.46957 8.78929 3.96086 8.41421 3.58579C8.03914 3.21071 7.53043 3 7 3ZM16 20C15.7348 20 15.4804 19.8946 15.2929 19.7071C15.1054 19.5196 15 19.2652 15 19C15 18.7348 15.1054 18.4804 15.2929 18.2929C15.4804 18.1054 15.7348 18 16 18H17C17.2652 18 17.5196 17.8946 17.7071 17.7071C17.8946 17.5196 18 17.2652 18 17V15.162C18 14.4512 17.7763 13.7583 17.3606 13.1817C16.9449 12.605 16.3584 12.1738 15.684 11.949C15.4323 11.8652 15.2242 11.6848 15.1055 11.4476C14.9868 11.2104 14.9672 10.9357 15.051 10.684C15.1348 10.4323 15.3152 10.2242 15.5524 10.1055C15.7896 9.9868 16.0643 9.96719 16.316 10.051C17.3888 10.4085 18.3219 11.0945 18.9831 12.0118C19.6443 12.9291 20.0001 14.0312 20 15.162V17C20 17.7956 19.6839 18.5587 19.1213 19.1213C18.5587 19.6839 17.7956 20 17 20H16ZM13 2C12.7348 2 12.4804 1.89464 12.2929 1.70711C12.1054 1.51957 12 1.26522 12 1C12 0.734784 12.1054 0.48043 12.2929 0.292893C12.4804 0.105357 12.7348 0 13 0C14.0609 0 15.0783 0.421427 15.8284 1.17157C16.5786 1.92172 17 2.93913 17 4V6C17 7.06087 16.5786 8.07828 15.8284 8.82843C15.0783 9.57857 14.0609 10 13 10C12.7348 10 12.4804 9.89464 12.2929 9.70711C12.1054 9.51957 12 9.26522 12 9C12 8.73478 12.1054 8.48043 12.2929 8.29289C12.4804 8.10536 12.7348 8 13 8C13.5304 8 14.0391 7.78929 14.4142 7.41421C14.7893 7.03914 15 6.53043 15 6V4C15 3.46957 14.7893 2.96086 14.4142 2.58579C14.0391 2.21071 13.5304 2 13 2Z" fill="#667CB1"/>
</svg>
