<svg width="20" height="20" viewBox="0 0 20 20" fill="none" xmlns="http://www.w3.org/2000/svg">
<path d="M7.88889 18C7.88889 18.5523 7.44117 19 6.88889 19H2.22222C1.55228 19 1 18.4477 1 17.7778V2.22222C1 1.55228 1.55228 1 2.22222 1H6.88889C7.44117 1 7.88889 1.44771 7.88889 2V18ZM13.1111 19C12.5588 19 12.1111 18.5523 12.1111 18V12C12.1111 11.4477 12.5588 11 13.1111 11H18C18.5523 11 19 11.4477 19 12V17.7778C19 18.4477 18.4477 19 17.7778 19H13.1111ZM19 5.77778C19 6.33006 18.5523 6.77778 18 6.77778H13.1111C12.5588 6.77778 12.1111 6.33006 12.1111 5.77778V2C12.1111 1.44771 12.5588 1 13.1111 1H17.7778C18.4477 1 19 1.55228 19 2.22222V5.77778Z" stroke="white" stroke-width="2"/>
</svg>
