<svg width="36" height="33" viewBox="0 0 36 33" fill="none" xmlns="http://www.w3.org/2000/svg">
<path d="M6.34644 2.45237e-06C6.11093 1.03552e-05 5.88007 0.0655446 5.67968 0.189273C5.4793 0.313002 5.31729 0.490046 5.21178 0.700597L0.135008 10.8541C0.0252148 11.0728 -0.019061 11.3184 0.00750921 11.5616C0.0340794 11.8048 0.130363 12.0351 0.284773 12.2249L16.7843 32.532C16.9033 32.6784 17.0534 32.7964 17.2238 32.8775C17.3942 32.9586 17.5805 33.0006 17.7692 33.0006C17.9579 33.0006 18.1442 32.9586 18.3145 32.8775C18.4849 32.7964 18.6351 32.6784 18.7541 32.532L35.2536 12.2249C35.4084 12.0354 35.5051 11.8052 35.5322 11.562C35.5592 11.3188 35.5153 11.073 35.4059 10.8541L30.3291 0.700597C30.2234 0.48966 30.061 0.312361 29.8601 0.188606C29.6593 0.0648508 29.4279 -0.00046128 29.1919 2.45237e-06H6.34644ZM3.32322 10.1535L7.1308 2.53839H12.3345L10.4307 10.1535H3.32322ZM3.93497 12.6919H10.4916L14.586 25.8002L3.93497 12.6919ZM13.1493 12.6919H22.389L17.7692 27.473L13.1493 12.6919ZM25.0493 12.6919H31.6034L20.9523 25.8002L25.0493 12.6919ZM32.2151 10.1535H25.1077L23.2039 2.53839H28.4076L32.2151 10.1535ZM22.4906 10.1535H13.0478L14.9516 2.53839H20.5868L22.4906 10.1535Z" fill="#9267FF"/>
</svg>
