<svg width="40" height="40" viewBox="0 0 40 40" fill="none" xmlns="http://www.w3.org/2000/svg">
<rect width="40" height="40" rx="10" fill="#9267FF"/>
<path d="M15.1998 12H24.7998C25.2241 12 25.6311 12.1686 25.9312 12.4686C26.2312 12.7687 26.3998 13.1757 26.3998 13.6V28H13.5998V13.6C13.5998 13.1757 13.7684 12.7687 14.0684 12.4686C14.3685 12.1686 14.7754 12 15.1998 12V12ZM15.1998 26.4H18.3998V23.2H21.5998V26.4H24.7998V13.6H15.1998V26.4ZM20.7998 15.2H23.1998V17.6H20.7998V15.2ZM16.7998 19.2H19.1998V21.6H16.7998V19.2ZM20.7998 19.2H23.1998V21.6H20.7998V19.2ZM16.7998 15.2H19.1998V17.6H16.7998V15.2Z" fill="#0B1E51"/>
</svg>
