<svg width="40" height="40" viewBox="0 0 40 40" fill="none" xmlns="http://www.w3.org/2000/svg">
<rect width="40" height="40" rx="10" fill="#61DEED"/>
<path d="M20.5341 19.6096C20.6654 19.6286 20.7988 19.5946 20.905 19.5152C21.0113 19.4358 21.0816 19.3174 21.1006 19.1861C21.1196 19.0548 21.0856 18.9214 21.0062 18.8152C20.9267 18.7089 20.8084 18.6386 20.6771 18.6196C19.6011 18.4646 18.3231 19.3416 18.3231 20.7826C18.3231 20.9152 18.3758 21.0424 18.4695 21.1362C18.5633 21.2299 18.6905 21.2826 18.8231 21.2826C18.9557 21.2826 19.0829 21.2299 19.1766 21.1362C19.2704 21.0424 19.3231 20.9152 19.3231 20.7826C19.3231 19.9826 20.0301 19.5366 20.5341 19.6096Z" fill="#0B1E51"/>
<path d="M14.0584 17.1341C11.6414 19.0421 11.5784 22.2761 12.7114 24.4541C13.4724 25.9181 14.9364 27.2211 17.1324 27.2211C17.6774 27.2211 18.0704 27.2061 18.3804 27.1951C19.3174 27.1591 19.4874 27.1531 20.7924 27.6751C22.5284 28.3691 24.3744 28.1631 25.9164 27.1991C27.3044 26.3311 28.1014 24.3171 27.9664 22.6821C27.8854 21.7001 27.9584 21.3161 28.0524 20.8201C28.1154 20.4901 28.1874 20.1121 28.2304 19.4761C28.3374 17.8811 27.5854 16.3841 27.1764 15.6701C26.7664 14.9561 26.0764 13.8401 24.4524 12.8151C23.1194 11.9731 20.5944 11.5701 18.5964 12.6691C17.1324 13.4741 16.4004 14.2061 15.5224 15.6691C15.1894 16.2241 14.8704 16.4921 14.0584 17.1341ZM24.9654 20.4651C24.9654 21.0554 24.8492 21.6399 24.6233 22.1852C24.3974 22.7306 24.0663 23.2261 23.6489 23.6435C23.2315 24.0609 22.736 24.392 22.1906 24.6179C21.6452 24.8438 21.0607 24.9601 20.4704 24.9601C19.8802 24.9601 19.2956 24.8438 18.7503 24.6179C18.2049 24.392 17.7094 24.0609 17.292 23.6435C16.8746 23.2261 16.5435 22.7306 16.3176 22.1852C16.0917 21.6399 15.9754 21.0554 15.9754 20.4651C15.9754 19.2729 16.449 18.1296 17.292 17.2866C18.135 16.4437 19.2783 15.9701 20.4704 15.9701C21.6626 15.9701 22.8059 16.4437 23.6489 17.2866C24.4919 18.1296 24.9654 19.2729 24.9654 20.4651Z" fill="#0B1E51"/>
</svg>
