<svg width="20" height="20" viewBox="0 0 20 20" fill="none" xmlns="http://www.w3.org/2000/svg">
<path d="M5.573 4.42491C5.27743 4.42491 4.99397 4.54233 4.78497 4.75133C4.57597 4.96032 4.45856 5.24379 4.45856 5.53936C4.45856 5.83493 4.57597 6.11839 4.78497 6.32739C4.99397 6.53639 5.27743 6.6538 5.573 6.6538H14.4063C14.7019 6.6538 14.9854 6.53639 15.1944 6.32739C15.4034 6.11839 15.5208 5.83493 15.5208 5.53936C15.5208 5.24379 15.4034 4.96032 15.1944 4.75133C14.9854 4.54233 14.7019 4.42491 14.4063 4.42491H5.573Z" fill="#667CB1"/>
<path d="M4.46179 10.0001C4.46179 9.38675 4.95846 8.88564 5.5729 8.88564H14.4062C14.7018 8.88564 14.9853 9.00305 15.1943 9.21205C15.4033 9.42105 15.5207 9.70451 15.5207 10.0001C15.5207 10.2956 15.4033 10.5791 15.1943 10.7881C14.9853 10.9971 14.7018 11.1145 14.4062 11.1145H5.5729C4.95846 11.1145 4.46179 10.6145 4.46179 10.0001Z" fill="#667CB1"/>
<path d="M5.58332 13.3464C5.28761 13.3464 5.004 13.4638 4.7949 13.6729C4.5858 13.882 4.46832 14.1656 4.46832 14.4614C4.46832 14.7571 4.5858 15.0407 4.7949 15.2498C5.004 15.4589 5.28761 15.5764 5.58332 15.5764H14.4167C14.7124 15.5764 14.996 15.4589 15.2051 15.2498C15.4142 15.0407 15.5317 14.7571 15.5317 14.4614C15.5317 14.1656 15.4142 13.882 15.2051 13.6729C14.996 13.4638 14.7124 13.3464 14.4167 13.3464H5.58332Z" fill="#667CB1"/>
<path fill-rule="evenodd" clip-rule="evenodd" d="M0 3.33333C0 2.44928 0.35119 1.60143 0.976311 0.976311C1.60143 0.35119 2.44928 0 3.33333 0H16.6667C17.5507 0 18.3986 0.35119 19.0237 0.976311C19.6488 1.60143 20 2.44928 20 3.33333V16.6667C20 17.5507 19.6488 18.3986 19.0237 19.0237C18.3986 19.6488 17.5507 20 16.6667 20H3.33333C2.44928 20 1.60143 19.6488 0.976311 19.0237C0.35119 18.3986 0 17.5507 0 16.6667V3.33333ZM3.33333 2.22222H16.6667C16.9614 2.22222 17.244 2.33929 17.4523 2.54766C17.6607 2.75603 17.7778 3.03865 17.7778 3.33333V16.6667C17.7778 16.9614 17.6607 17.244 17.4523 17.4523C17.244 17.6607 16.9614 17.7778 16.6667 17.7778H3.33333C3.03865 17.7778 2.75603 17.6607 2.54766 17.4523C2.33929 17.244 2.22222 16.9614 2.22222 16.6667V3.33333C2.22222 3.03865 2.33929 2.75603 2.54766 2.54766C2.75603 2.33929 3.03865 2.22222 3.33333 2.22222Z" fill="#667CB1"/>
</svg>
