<svg width="20" height="20" viewBox="0 0 20 20" fill="none" xmlns="http://www.w3.org/2000/svg">
<path d="M18.5714 0H1.42857C1.04969 0 0.686328 0.15051 0.418419 0.418419C0.15051 0.686328 0 1.04969 0 1.42857L0 18.5714C0 18.9503 0.15051 19.3137 0.418419 19.5816C0.686328 19.8495 1.04969 20 1.42857 20H18.5714C18.9503 20 19.3137 19.8495 19.5816 19.5816C19.8495 19.3137 20 18.9503 20 18.5714V1.42857C20 1.04969 19.8495 0.686328 19.5816 0.418419C19.3137 0.15051 18.9503 0 18.5714 0ZM16.1429 2.85714C16.6951 2.85714 17.1429 3.30486 17.1429 3.85714V7.57143C17.1429 8.12371 16.6951 8.57143 16.1429 8.57143H12.4286C11.8763 8.57143 11.4286 8.12371 11.4286 7.57143V3.85714C11.4286 3.30486 11.8763 2.85714 12.4286 2.85714H16.1429ZM7.57143 2.85714C8.12371 2.85714 8.57143 3.30486 8.57143 3.85714V7.57143C8.57143 8.12371 8.12371 8.57143 7.57143 8.57143H3.85714C3.30486 8.57143 2.85714 8.12371 2.85714 7.57143V3.85714C2.85714 3.30486 3.30486 2.85714 3.85714 2.85714H7.57143ZM3.85714 17.1429C3.30486 17.1429 2.85714 16.6951 2.85714 16.1429V12.4286C2.85714 11.8763 3.30486 11.4286 3.85714 11.4286H7.57143C8.12371 11.4286 8.57143 11.8763 8.57143 12.4286V16.1429C8.57143 16.6951 8.12371 17.1429 7.57143 17.1429H3.85714ZM12.4286 17.1429C11.8763 17.1429 11.4286 16.6951 11.4286 16.1429V12.4286C11.4286 11.8763 11.8763 11.4286 12.4286 11.4286H16.1429C16.6951 11.4286 17.1429 11.8763 17.1429 12.4286V16.1429C17.1429 16.6951 16.6951 17.1429 16.1429 17.1429H12.4286Z" fill="#667CB1"/>
</svg>
