<svg width="20" height="21" viewBox="0 0 20 21" fill="none" xmlns="http://www.w3.org/2000/svg">
<path d="M18.5958 11.5889C18.7619 11.7047 18.8858 11.8693 18.9495 12.057C19.0151 12.2461 19.0165 12.4492 18.9555 12.6395C18.5309 13.9425 17.8086 15.1382 16.8414 16.1392C16.7017 16.2829 16.5191 16.3815 16.3186 16.4215C16.1182 16.4614 15.9097 16.4408 15.722 16.3623L14.4124 15.8106C14.2693 15.7495 14.1133 15.7213 13.9569 15.7283C13.801 15.737 13.6495 15.7811 13.5148 15.8569C13.3799 15.9319 13.2654 16.0364 13.1807 16.1621C13.0961 16.2877 13.0437 16.4308 13.0278 16.5796L12.8703 17.9491C12.8477 18.1441 12.7628 18.3276 12.6273 18.4744C12.4918 18.6213 12.3123 18.7244 12.1134 18.7695C10.7227 19.0878 9.27312 19.0878 7.88245 18.7695C7.68495 18.7237 7.50683 18.6208 7.37208 18.4748C7.23734 18.3288 7.15245 18.1467 7.12884 17.953L6.97142 16.586C6.94421 16.3531 6.82855 16.1379 6.64653 15.9817C6.50424 15.8612 6.32932 15.7819 6.14202 15.7529C5.95471 15.7239 5.76268 15.7463 5.58813 15.8177L4.27852 16.37C4.09134 16.4484 3.88346 16.4694 3.6834 16.4299C3.48335 16.3904 3.30092 16.2924 3.16117 16.1495C2.19235 15.1474 1.46911 13.9502 1.04436 12.6453C0.983463 12.4563 0.985305 12.2537 1.04963 12.0657C1.11396 11.8777 1.2376 11.7136 1.40342 11.596L2.55895 10.7762C2.68522 10.6874 2.7879 10.5712 2.85867 10.4372C2.92945 10.3031 2.96633 10.155 2.96633 10.0047C2.96633 9.85441 2.92945 9.70624 2.85867 9.5722C2.7879 9.43815 2.68522 9.32199 2.55895 9.23313L1.40342 8.41464C1.23848 8.2977 1.11538 8.13455 1.05108 7.94766C0.986776 7.76077 0.98443 7.55934 1.04436 7.37111C1.469 6.06731 2.19202 4.87114 3.1605 3.87018C3.25428 3.7731 3.36816 3.69594 3.49544 3.6445C3.61941 3.59411 3.75268 3.56813 3.88732 3.56813C4.02195 3.56813 4.15522 3.59411 4.27919 3.6445L5.58344 4.19617C5.72693 4.25532 5.88285 4.2814 6.03873 4.27233C6.1946 4.26325 6.3461 4.21926 6.48108 4.14389C6.61606 4.06852 6.73078 3.96385 6.81604 3.83828C6.90131 3.71271 6.95475 3.56971 6.97209 3.42075L7.13018 2.05639C7.15318 1.85938 7.23961 1.67416 7.37746 1.52652C7.5153 1.37889 7.69768 1.2762 7.8992 1.23275C8.59153 1.08614 9.29771 1.00815 10.0066 1C10.7113 1.00772 11.4134 1.08551 12.1013 1.23275C12.3033 1.2759 12.4861 1.37876 12.6239 1.52687C12.7617 1.67497 12.8477 1.86085 12.8697 2.05832L13.0278 3.4214C13.0445 3.57013 13.0975 3.713 13.1824 3.83844C13.2674 3.96388 13.3819 4.06838 13.5167 4.14349C13.6515 4.21861 13.8028 4.26222 13.9584 4.27081C14.114 4.2794 14.2695 4.25273 14.4124 4.19295L15.716 3.64193C15.904 3.56342 16.1127 3.54266 16.3134 3.58249C16.5142 3.62232 16.6972 3.72079 16.8374 3.8644C17.8053 4.86432 18.5278 6.05941 18.9521 7.36211C19.0135 7.55099 19.0118 7.75355 18.9473 7.94146C18.8828 8.12937 18.7587 8.29324 18.5924 8.41014L17.4402 9.22863C17.3135 9.31669 17.2102 9.4323 17.1389 9.56601C17.0676 9.69972 17.0303 9.84773 17.0301 9.99792C17.0298 10.1481 17.0666 10.2962 17.1374 10.4302C17.2082 10.5641 17.3111 10.6801 17.4376 10.7685L18.5958 11.5889ZM9.99993 12.5714C10.7106 12.5714 11.3921 12.3004 11.8946 11.8181C12.3971 11.3358 12.6794 10.6816 12.6794 9.99954C12.6794 9.31745 12.3971 8.66329 11.8946 8.18097C11.3921 7.69866 10.7106 7.42769 9.99993 7.42769C9.28928 7.42769 8.60774 7.69866 8.10524 8.18097C7.60273 8.66329 7.32043 9.31745 7.32043 9.99954C7.32043 10.6816 7.60273 11.3358 8.10524 11.8181C8.60774 12.3004 9.28928 12.5714 9.99993 12.5714Z" stroke="#667CB1" stroke-width="2"/>
</svg>
