<svg width="40" height="40" viewBox="0 0 40 40" fill="none" xmlns="http://www.w3.org/2000/svg">
<rect width="40" height="40" rx="10" fill="#FFDF66"/>
<path d="M18.1217 20.4633L19.9998 19.0386L21.8698 20.4633L21.1574 18.1562L23.0355 16.6667H20.7365L19.9998 14.3919L19.2631 16.6667H16.9641L18.8341 18.1562L18.1217 20.4633ZM26.476 17.4762C26.476 13.8981 23.5779 11 19.9998 11C16.4217 11 13.5236 13.8981 13.5236 17.4762C13.5236 19.1195 14.1389 20.609 15.1427 21.7505V28L19.9998 26.381L24.857 28V21.7505C25.9008 20.5714 26.4767 19.0509 26.476 17.4762ZM19.9998 12.619C22.6793 12.619 24.857 14.7967 24.857 17.4762C24.857 20.1557 22.6793 22.3333 19.9998 22.3333C17.3203 22.3333 15.1427 20.1557 15.1427 17.4762C15.1427 14.7967 17.3203 12.619 19.9998 12.619ZM19.9998 24.7619L16.7617 25.5876V23.0781C17.717 23.6286 18.8179 23.9524 19.9998 23.9524C21.1817 23.9524 22.2827 23.6286 23.2379 23.0781V25.5876L19.9998 24.7619Z" fill="#0B1E51"/>
</svg>
