<svg width="40" height="40" viewBox="0 0 40 40" fill="none" xmlns="http://www.w3.org/2000/svg">
<rect width="40" height="40" rx="10" fill="#61DEED"/>
<path d="M9.31211 27.4196C8.99159 27.7996 9.03974 28.3674 9.41964 28.6879C9.79955 29.0084 10.3674 28.9603 10.6879 28.5804L9.31211 27.4196ZM30 12L20.2533 15.6059L28.2494 22.2438L30 12ZM19.0448 23.949L18.6226 24.7438L19.0448 23.949ZM20.2834 23.7047L19.5909 23.1298L20.2834 23.7047ZM14.6387 22.5018L13.9508 21.9215L14.6387 22.5018ZM15.8722 22.2635L15.4499 23.0583L15.8722 22.2635ZM10.6879 28.5804L15.3266 23.0822L13.9508 21.9215L9.31211 27.4196L10.6879 28.5804ZM15.4499 23.0583L18.6226 24.7438L19.4671 23.1542L16.2944 21.4687L15.4499 23.0583ZM20.9759 24.2795L25.5187 18.8072L24.1338 17.6575L19.5909 23.1298L20.9759 24.2795ZM18.6226 24.7438C19.4179 25.1664 20.4006 24.9725 20.9759 24.2795L19.5909 23.1298C19.5606 23.1663 19.5089 23.1765 19.4671 23.1542L18.6226 24.7438ZM15.3266 23.0822C15.357 23.0462 15.4084 23.0362 15.4499 23.0583L16.2944 21.4687C15.5041 21.0489 14.5279 21.2374 13.9508 21.9215L15.3266 23.0822Z" fill="#0B1E51"/>
</svg>
